<svg width="250" height="250" viewBox="0 0 250 250" fill="none" xmlns="http://www.w3.org/2000/svg">
<path d="M125.05 248.761C193.374 248.761 248.761 193.374 248.761 125.05C248.761 56.7263 193.374 1.33899 125.05 1.33899C56.7266 1.33899 1.33929 56.7263 1.33929 125.05C1.33929 193.374 56.7266 248.761 125.05 248.761Z" stroke="#707070" stroke-miterlimit="10"/>
<path d="M125.05 237.248C187.016 237.248 237.248 187.015 237.248 125.05C237.248 63.0847 187.016 12.852 125.05 12.852C63.085 12.852 12.8523 63.0847 12.8523 125.05C12.8523 187.015 63.085 237.248 125.05 237.248Z" stroke="#707070" stroke-miterlimit="10"/>
<path d="M125.05 226.346C180.995 226.346 226.346 180.994 226.346 125.05C226.346 69.1057 180.995 23.754 125.05 23.754C69.1061 23.754 23.7543 69.1057 23.7543 125.05C23.7543 180.994 69.1061 226.346 125.05 226.346Z" stroke="#707070" stroke-miterlimit="10"/>
<path d="M125.05 215.802C175.171 215.802 215.802 175.171 215.802 125.05C215.802 74.929 175.171 34.298 125.05 34.298C74.9294 34.298 34.2983 74.929 34.2983 125.05C34.2983 175.171 74.9294 215.802 125.05 215.802Z" stroke="#707070" stroke-miterlimit="10"/>
<path d="M125.05 204.218C168.774 204.218 204.218 168.773 204.218 125.05C204.218 81.3267 168.774 45.882 125.05 45.882C81.327 45.882 45.8823 81.3267 45.8823 125.05C45.8823 168.773 81.327 204.218 125.05 204.218Z" stroke="#707070" stroke-miterlimit="10"/>
</svg>
