<svg width="220" height="28" viewBox="0 0 220 28" fill="none" xmlns="http://www.w3.org/2000/svg">
<path d="M91.9116 14.1198C91.9116 12.6645 92.1971 11.3842 92.7682 10.2789C93.3577 9.17368 94.1866 8.30789 95.2551 7.68157C96.3419 7.05526 97.6314 6.7421 99.1235 6.7421C100.284 6.7421 101.325 6.95394 102.246 7.37762C103.185 7.80131 103.922 8.37236 104.456 9.09079C104.991 9.79079 105.258 10.5645 105.258 11.4118C105.258 12.2961 105 12.9224 104.484 13.2908C103.968 13.6592 103.204 13.8434 102.191 13.8434H96.3879C96.3879 14.3224 96.5722 14.7184 96.9406 15.0316C97.3274 15.3448 97.9722 15.5013 98.8748 15.5013C99.3353 15.5013 99.759 15.4553 100.146 15.3632C100.551 15.2711 100.956 15.1882 101.362 15.1145C101.785 15.0224 102.255 14.9763 102.771 14.9763C103.508 14.9763 104.116 15.2434 104.595 15.7777C105.074 16.2934 105.313 17.0119 105.313 17.9329C105.313 19.0198 104.751 19.8671 103.627 20.475C102.522 21.0829 101.067 21.3869 99.2616 21.3869C97.9906 21.3869 96.7932 21.1382 95.6695 20.6408C94.5643 20.1435 93.6616 19.3606 92.9616 18.2921C92.2616 17.2053 91.9116 15.8145 91.9116 14.1198ZM100.864 12.9316C101.141 12.9316 101.233 12.8026 101.141 12.5447C101.067 12.2869 100.846 12.0197 100.477 11.7434C100.109 11.4671 99.5748 11.329 98.8748 11.329C98.0643 11.329 97.4564 11.504 97.0511 11.854C96.6643 12.204 96.4708 12.5632 96.4708 12.9316H100.864Z" fill="#171717"/>
<path d="M78.7769 21.304C77.9663 21.304 77.3216 21.0645 76.8426 20.5856C76.3821 20.0882 76.1519 19.4803 76.1519 18.7619V2.76314C76.1519 1.98945 76.3821 1.3355 76.8426 0.801288C77.3216 0.267076 77.994 -3.05176e-05 78.8598 -3.05176e-05C79.7071 -3.05176e-05 80.3427 0.267076 80.7663 0.801288C81.2085 1.3355 81.4295 1.99866 81.4295 2.79077V11.0526H81.9269C81.9269 10.0026 82.1111 9.17368 82.4795 8.56579C82.8664 7.95789 83.3545 7.52499 83.944 7.2671C84.5519 6.99078 85.169 6.85262 85.7953 6.85262C86.9006 6.85262 87.7387 7.12894 88.3098 7.68157C88.8993 8.21578 89.2953 8.93421 89.498 9.83684C89.719 10.7395 89.8295 11.725 89.8295 12.7934V18.7619C89.8295 19.5171 89.5808 20.1342 89.0835 20.6132C88.6045 21.0737 87.9598 21.304 87.1493 21.304C86.3203 21.304 85.6664 21.0737 85.1874 20.6132C84.7085 20.1342 84.469 19.5171 84.469 18.7619V13.8711C84.469 13.2079 84.34 12.6921 84.0821 12.3237C83.8242 11.9553 83.4466 11.7711 82.9492 11.7711C82.4519 11.7711 82.0742 11.9737 81.8163 12.379C81.5585 12.7842 81.4295 13.3 81.4295 13.9263V18.7619C81.4295 19.4803 81.19 20.0882 80.7111 20.5856C80.2506 21.0645 79.6058 21.304 78.7769 21.304Z" fill="#171717"/>
<path d="M68.985 21.3869C68.0087 21.3869 67.1245 21.1658 66.3324 20.7237C65.5587 20.2816 64.9508 19.6553 64.5087 18.8448C64.0666 18.0158 63.8455 17.0487 63.8455 15.9435V11.0803L62.8232 11.2184C62.2705 11.2921 61.7824 11.0987 61.3587 10.6382C60.935 10.1776 60.7231 9.59738 60.7231 8.89738C60.7231 8.19737 60.935 7.62632 61.3587 7.18421C61.7824 6.72369 62.2705 6.53026 62.8232 6.60395L63.8455 6.74211L63.8179 4.86315C63.7995 4.12631 64.0113 3.54604 64.4534 3.12236C64.8955 2.68025 65.5403 2.4592 66.3876 2.4592C67.235 2.4592 67.889 2.68025 68.3495 3.12236C68.81 3.54604 69.0219 4.12631 68.985 4.86315L68.9297 6.74211L70.3942 6.54868C71.389 6.40132 72.1442 6.58553 72.66 7.10132C73.1758 7.59869 73.4337 8.19737 73.4337 8.89738C73.4337 9.59738 73.1758 10.2053 72.66 10.7211C72.1627 11.2184 71.435 11.4026 70.4771 11.2737L68.9297 11.0803V15.1974C68.9297 15.4369 69.0126 15.6579 69.1784 15.8606C69.3442 16.0448 69.5469 16.1 69.7863 16.0263C70.0626 15.9527 70.3482 15.7961 70.6429 15.5566C70.9561 15.3171 71.3521 15.1974 71.8311 15.1974C72.5495 15.1974 73.1021 15.4553 73.489 15.9711C73.8758 16.4869 74.0692 17.1224 74.0692 17.8777C74.0692 18.4671 73.8574 19.0382 73.4337 19.5908C73.0284 20.125 72.4482 20.5579 71.6929 20.8895C70.9377 21.2211 70.035 21.3869 68.985 21.3869Z" fill="#171717"/>
<path d="M213.396 22.368C212.125 22.368 210.946 22.2482 209.859 22.0088C208.791 21.7509 207.934 21.3548 207.289 20.8206C206.645 20.268 206.322 19.5403 206.322 18.6377C206.322 17.8456 206.562 17.1916 207.041 16.6759C207.52 16.1601 208.155 15.9022 208.947 15.9022C209.445 15.9022 209.942 15.9851 210.439 16.1509C210.955 16.2982 211.499 16.4456 212.07 16.593C212.641 16.7403 213.258 16.814 213.921 16.814C214.51 16.814 214.906 16.7864 215.109 16.7311C215.312 16.6574 215.413 16.5285 215.413 16.3443C215.413 16.1232 215.284 15.9759 215.026 15.9022C214.787 15.8285 214.372 15.7364 213.783 15.6259L211.793 15.239C210.964 15.0732 210.154 14.8614 209.362 14.6035C208.588 14.3272 207.943 13.9219 207.428 13.3877C206.93 12.8535 206.681 12.1258 206.681 11.2048C206.681 9.95215 207.234 8.97583 208.339 8.27583C209.463 7.57583 211.084 7.22583 213.203 7.22583C214.418 7.22583 215.505 7.34557 216.463 7.58504C217.439 7.82452 218.213 8.18373 218.784 8.66268C219.355 9.1232 219.641 9.70347 219.641 10.4035C219.659 11.1587 219.457 11.7666 219.033 12.2272C218.609 12.6877 218.075 12.918 217.43 12.918C216.97 12.918 216.5 12.8627 216.021 12.7522C215.56 12.6232 215.054 12.4943 214.501 12.3653C213.967 12.218 213.35 12.1351 212.65 12.1166C212.153 12.0798 211.747 12.1074 211.434 12.1995C211.121 12.2916 210.964 12.439 210.964 12.6416C210.964 12.8627 211.149 13.0193 211.517 13.1114C211.885 13.1851 212.438 13.2864 213.175 13.4153L215.137 13.7745C216.334 13.9772 217.283 14.2351 217.983 14.5482C218.701 14.843 219.217 15.2574 219.53 15.7916C219.843 16.3259 220 17.0627 220 18.0022C220 18.9785 219.714 19.7982 219.143 20.4614C218.591 21.1061 217.817 21.5851 216.822 21.8982C215.828 22.2114 214.685 22.368 213.396 22.368Z" fill="#171717"/>
<path d="M191.097 14.8246C191.097 13.3693 191.383 12.089 191.954 10.9838C192.543 9.87849 193.372 9.01269 194.441 8.38638C195.527 7.76006 196.817 7.4469 198.309 7.4469C199.47 7.4469 200.51 7.65874 201.431 8.08243C202.371 8.50611 203.108 9.07717 203.642 9.79559C204.176 10.4956 204.443 11.2693 204.443 12.1167C204.443 13.0009 204.185 13.6272 203.67 13.9956C203.154 14.364 202.389 14.5482 201.376 14.5482H195.573C195.573 15.0272 195.758 15.4232 196.126 15.7364C196.513 16.0496 197.158 16.2061 198.06 16.2061C198.521 16.2061 198.945 16.1601 199.331 16.068C199.737 15.9759 200.142 15.893 200.547 15.8193C200.971 15.7272 201.441 15.6811 201.956 15.6811C202.693 15.6811 203.301 15.9482 203.78 16.4825C204.259 16.9982 204.499 17.7167 204.499 18.6377C204.499 19.7246 203.937 20.5719 202.813 21.1798C201.708 21.7877 200.252 22.0917 198.447 22.0917C197.176 22.0917 195.979 21.843 194.855 21.3456C193.75 20.8483 192.847 20.0654 192.147 18.9969C191.447 17.9101 191.097 16.5193 191.097 14.8246ZM200.05 13.6364C200.326 13.6364 200.418 13.5074 200.326 13.2496C200.252 12.9917 200.031 12.7245 199.663 12.4482C199.295 12.1719 198.76 12.0338 198.06 12.0338C197.25 12.0338 196.642 12.2088 196.237 12.5588C195.85 12.9088 195.656 13.268 195.656 13.6364H200.05Z" fill="#171717"/>
<path d="M170.916 22.0088C170.087 22.0088 169.424 21.7693 168.927 21.2903C168.448 20.793 168.208 20.1851 168.208 19.4667V10.3206C168.208 9.54688 168.439 8.89293 168.899 8.35872C169.378 7.82451 170.051 7.5574 170.916 7.5574C171.764 7.5574 172.399 7.82451 172.823 8.35872C173.247 8.89293 173.459 9.5653 173.459 10.3758V11.7574H173.956C173.956 10.1916 174.287 9.10478 174.951 8.49688C175.614 7.87056 176.434 7.5574 177.41 7.5574C178.662 7.5574 179.584 7.94425 180.173 8.71793C180.762 9.49162 181.057 10.5048 181.057 11.7574H181.555C181.555 10.7074 181.73 9.87846 182.08 9.27057C182.43 8.66267 182.872 8.22977 183.406 7.97188C183.959 7.69556 184.53 7.5574 185.119 7.5574C186.316 7.5574 187.191 7.84293 187.744 8.41398C188.315 8.98504 188.684 9.74952 188.849 10.7074C189.015 11.6653 189.098 12.7429 189.098 13.9403V19.4667C189.098 20.1851 188.849 20.793 188.352 21.2903C187.873 21.7693 187.228 22.0088 186.418 22.0088C185.607 22.0088 184.953 21.7693 184.456 21.2903C183.959 20.793 183.71 20.1851 183.71 19.4667V14.5758C183.71 13.9127 183.627 13.3969 183.461 13.0285C183.295 12.66 182.964 12.4758 182.466 12.4758C181.932 12.4758 181.582 12.6785 181.416 13.0837C181.269 13.489 181.195 14.0048 181.195 14.6311V19.4667C181.195 20.1851 180.965 20.793 180.505 21.2903C180.044 21.7693 179.409 22.0088 178.598 22.0088C177.769 22.0088 177.106 21.7693 176.609 21.2903C176.13 20.793 175.89 20.1851 175.89 19.4667V14.5758C175.89 13.9127 175.807 13.3969 175.641 13.0285C175.476 12.66 175.153 12.4758 174.674 12.4758C174.14 12.4758 173.799 12.6785 173.652 13.0837C173.523 13.489 173.459 14.0048 173.459 14.6311V19.4667C173.459 20.1851 173.237 20.793 172.795 21.2903C172.353 21.7693 171.727 22.0088 170.916 22.0088Z" fill="#171717"/>
<path d="M157.699 27.7009C156.465 27.7009 155.451 27.4983 154.659 27.093C153.886 26.6877 153.278 26.1535 152.836 25.4904C152.467 24.9193 152.255 24.3206 152.2 23.6943C152.163 23.068 152.283 22.4877 152.559 21.9535C152.836 21.4009 153.25 20.9772 153.803 20.6825C154.374 20.3693 154.945 20.2496 155.516 20.3232C156.087 20.3785 156.612 20.5904 157.091 20.9588C157.57 21.3088 157.938 21.7693 158.196 22.3404C158.472 22.9483 158.749 23.3904 159.025 23.6667C159.32 23.9614 159.697 24.0259 160.158 23.8601C160.6 23.7127 160.757 23.3075 160.628 22.6443C160.517 21.9811 160.278 21.1982 159.909 20.2956H158.887C158.095 20.2956 157.303 20.0101 156.511 19.439C155.718 18.868 155.055 17.9653 154.521 16.7311L152.255 11.4811C151.905 10.6522 151.868 9.88769 152.145 9.18769C152.44 8.48768 152.965 7.9811 153.72 7.66794C154.42 7.35479 155.111 7.33636 155.792 7.61268C156.474 7.889 157.008 8.47847 157.395 9.38111L159.495 14.2719C159.845 15.064 160.222 15.6351 160.628 15.9851C161.051 16.3351 161.493 16.3903 161.954 16.1509C162.359 15.9298 162.58 15.6259 162.617 15.239C162.654 14.8338 162.461 14.3456 162.037 13.7745C161.853 13.5166 161.632 13.2311 161.374 12.918C161.134 12.6048 160.913 12.2456 160.711 11.8403C160.526 11.4166 160.434 10.9469 160.434 10.4311C160.434 9.56532 160.729 8.85611 161.318 8.30347C161.908 7.73242 162.682 7.44689 163.64 7.44689C164.505 7.44689 165.196 7.72321 165.712 8.27584C166.246 8.82847 166.513 9.5469 166.513 10.4311C166.513 11.0574 166.44 11.7482 166.292 12.5035C166.145 13.2588 165.979 13.9588 165.795 14.6035L163.805 21.8706C163.511 22.9575 163.124 23.943 162.645 24.8272C162.166 25.7114 161.53 26.4114 160.738 26.9272C159.946 27.443 158.933 27.7009 157.699 27.7009Z" fill="#171717"/>
<path d="M139.441 22.0088C138.631 22.0088 137.986 21.7693 137.507 21.2904C137.047 20.793 136.816 20.1851 136.816 19.4667V3.46794C136.816 2.69425 137.047 2.0403 137.507 1.50609C137.986 0.971879 138.659 0.704773 139.524 0.704773C140.372 0.704773 141.007 0.971879 141.431 1.50609C141.873 2.0403 142.094 2.70346 142.094 3.49557V11.7574H142.591C142.591 10.7074 142.776 9.87849 143.144 9.27059C143.531 8.66269 144.019 8.2298 144.609 7.9719C145.216 7.69558 145.834 7.55743 146.46 7.55743C147.565 7.55743 148.403 7.83374 148.974 8.38638C149.564 8.92059 149.96 9.63901 150.163 10.5416C150.384 11.4443 150.494 12.4298 150.494 13.4982V19.4667C150.494 20.2219 150.245 20.839 149.748 21.318C149.269 21.7785 148.624 22.0088 147.814 22.0088C146.985 22.0088 146.331 21.7785 145.852 21.318C145.373 20.839 145.134 20.2219 145.134 19.4667V14.5759C145.134 13.9127 145.005 13.3969 144.747 13.0285C144.489 12.6601 144.111 12.4759 143.614 12.4759C143.116 12.4759 142.739 12.6785 142.481 13.0838C142.223 13.489 142.094 14.0048 142.094 14.6311V19.4667C142.094 20.1851 141.855 20.793 141.376 21.2904C140.915 21.7693 140.27 22.0088 139.441 22.0088Z" fill="#171717"/>
<path d="M132.235 22.0088C131.314 22.0088 130.586 21.7325 130.052 21.1798C129.518 20.6088 129.232 19.8719 129.195 18.9693C129.122 17.4035 128.726 16.2982 128.007 15.6535C127.307 14.9903 126.368 14.6587 125.189 14.6587H124.636V19.0798C124.636 20.0377 124.378 20.7653 123.862 21.2627C123.347 21.7601 122.665 22.0088 121.818 22.0088C120.915 22.0088 120.206 21.7601 119.69 21.2627C119.174 20.7653 118.916 20.0377 118.916 19.0798V15.1837C118.916 13.2311 119.202 11.7482 119.773 10.735C120.362 9.72189 121.109 8.99425 122.011 8.55215L121.873 8.02714H121.431C120.584 8.02714 119.911 7.76004 119.414 7.22583C118.935 6.67319 118.677 5.92714 118.64 4.98766C118.622 4.06661 118.87 3.32055 119.386 2.7495C119.902 2.17844 120.584 1.89291 121.431 1.89291H128.477C130.448 1.89291 132.041 2.37186 133.257 3.32976C134.473 4.28766 135.081 5.81661 135.081 7.91662C135.081 9.00346 134.897 9.91531 134.528 10.6522C134.16 11.3706 133.69 11.9232 133.119 12.3101C132.548 12.6969 131.949 12.9272 131.323 13.0008V13.3601C132.465 13.6364 133.405 14.2443 134.141 15.1837C134.897 16.1232 135.274 17.3851 135.274 18.9693C135.274 19.9824 134.998 20.7469 134.445 21.2627C133.911 21.7601 133.174 22.0088 132.235 22.0088ZM124.498 10.4311C124.498 10.8364 124.572 11.1035 124.719 11.2324C124.866 11.3614 125.143 11.4258 125.548 11.4258H128.145C128.919 11.4258 129.481 11.2508 129.831 10.9008C130.181 10.5508 130.356 10.0627 130.356 9.43636C130.356 8.79162 130.181 8.29425 129.831 7.94425C129.481 7.59425 128.919 7.41925 128.145 7.41925H125.548C125.143 7.41925 124.866 7.47451 124.719 7.58504C124.572 7.69556 124.498 7.96267 124.498 8.38636V10.4311Z" fill="#171717"/>
<path d="M43.7973 21.304C42.8946 21.304 42.213 21.0645 41.7525 20.5856C41.3104 20.1066 41.0894 19.5079 41.0894 18.7895V2.76314C41.0894 1.97103 41.3104 1.31708 41.7525 0.801288C42.213 0.267076 42.8946 -3.05176e-05 43.7973 -3.05176e-05C44.6078 -3.05176e-05 45.2341 0.267076 45.6762 0.801288C46.1183 1.31708 46.3394 1.95261 46.3394 2.70787V18.7895C46.3394 19.5079 46.1183 20.1066 45.6762 20.5856C45.2341 21.0645 44.6078 21.304 43.7973 21.304Z" fill="black"/>
<path d="M36.578 21.304C35.6754 21.304 34.9938 21.0645 34.5333 20.5856C34.0912 20.1066 33.8701 19.5079 33.8701 18.7895V2.76314C33.8701 1.97103 34.0912 1.31708 34.5333 0.801288C34.9938 0.267076 35.6754 -3.05176e-05 36.578 -3.05176e-05C37.3886 -3.05176e-05 38.0149 0.267076 38.457 0.801288C38.8991 1.31708 39.1201 1.95261 39.1201 2.70787V18.7895C39.1201 19.5079 38.8991 20.1066 38.457 20.5856C38.0149 21.0645 37.3886 21.304 36.578 21.304Z" fill="black"/>
<path d="M13.5957 21.304C12.6747 21.304 11.947 21.0276 11.4128 20.475C10.8786 19.904 10.5931 19.1671 10.5562 18.2645C10.4826 16.6987 10.0865 15.5934 9.36809 14.9487C8.66809 14.2855 7.72861 13.9539 6.54966 13.9539H5.99702V18.375C5.99702 19.3329 5.73913 20.0605 5.22334 20.5579C4.70755 21.0553 4.02597 21.304 3.17859 21.304C2.27596 21.304 1.56675 21.0553 1.05096 20.5579C0.535165 20.0605 0.277269 19.3329 0.277269 18.375V14.4789C0.277269 12.5263 0.562797 11.0434 1.13385 10.0302C1.72333 9.01708 2.46938 8.28945 3.37202 7.84734L3.23386 7.32234H2.79175C1.94438 7.32234 1.27201 7.05523 0.77464 6.52102C0.295691 5.96839 0.037795 5.22233 0.000952816 4.28286C-0.0174683 3.3618 0.231217 2.61575 0.747008 2.04469C1.2628 1.47364 1.94438 1.18811 2.79175 1.18811H9.83783C11.8089 1.18811 13.4023 1.66706 14.6181 2.62496C15.8339 3.58286 16.4418 5.11181 16.4418 7.21181C16.4418 8.29866 16.2576 9.2105 15.8892 9.94735C15.5207 10.6658 15.051 11.2184 14.4799 11.6052C13.9089 11.9921 13.3102 12.2224 12.6839 12.296V12.6553C13.826 12.9316 14.7655 13.5395 15.5023 14.4789C16.2576 15.4184 16.6352 16.6803 16.6352 18.2645C16.6352 19.2776 16.3589 20.0421 15.8063 20.5579C15.2721 21.0553 14.5352 21.304 13.5957 21.304ZM5.85887 9.7263C5.85887 10.1316 5.93255 10.3987 6.07992 10.5276C6.22729 10.6566 6.50361 10.721 6.90887 10.721H9.50625C10.2799 10.721 10.8418 10.546 11.1918 10.196C11.5418 9.84603 11.7168 9.35787 11.7168 8.73156C11.7168 8.08682 11.5418 7.58945 11.1918 7.23945C10.8418 6.88945 10.2799 6.71444 9.50625 6.71444H6.90887C6.50361 6.71444 6.22729 6.76971 6.07992 6.88023C5.93255 6.99076 5.85887 7.25787 5.85887 7.68155V9.7263Z" fill="black"/>
<rect x="18.0894" y="9.90582" width="11.8302" height="11.8302" rx="1.18302" transform="rotate(-11.6462 18.0894 9.90582)" fill="black"/>
<circle cx="22.3218" cy="12.8585" r="0.985852" transform="rotate(-11.6462 22.3218 12.8585)" fill="white"/>
<circle cx="26.9566" cy="11.9032" r="0.985852" transform="rotate(-11.6462 26.9566 11.9032)" fill="white"/>
<circle cx="23.1973" cy="17.107" r="0.985852" transform="rotate(-11.6462 23.1973 17.107)" fill="white"/>
<circle cx="27.832" cy="16.1517" r="0.985852" transform="rotate(-11.6462 27.832 16.1517)" fill="white"/>
</svg>
