<svg width="191" height="92" viewBox="0 0 191 92" fill="none" xmlns="http://www.w3.org/2000/svg">
<path d="M133.231 60.1023C133.231 53.9078 134.447 48.4583 136.878 43.7536C139.387 39.0489 142.915 35.3635 147.463 32.6976C152.089 30.0316 157.578 28.6986 163.93 28.6986C168.869 28.6986 173.3 29.6003 177.22 31.4038C181.219 33.2072 184.356 35.638 186.63 38.696C188.904 41.6757 190.041 44.9689 190.041 48.5759C190.041 52.3396 188.943 55.0056 186.747 56.5738C184.552 58.1421 181.298 58.9262 176.985 58.9262H152.285C152.285 60.9649 153.07 62.6507 154.638 63.9837C156.284 65.3167 159.029 65.9832 162.871 65.9832C164.831 65.9832 166.635 65.7872 168.281 65.3951C170.006 65.0031 171.731 64.6502 173.456 64.3366C175.26 63.9445 177.259 63.7485 179.455 63.7485C182.591 63.7485 185.179 64.8854 187.218 67.1594C189.256 69.3549 190.276 72.4129 190.276 76.3335C190.276 80.9598 187.884 84.5667 183.101 87.1543C178.396 89.7419 172.202 91.0356 164.518 91.0356C159.107 91.0356 154.01 89.9771 149.227 87.86C144.523 85.7429 140.681 82.4104 137.701 77.8625C134.721 73.2363 133.231 67.3162 133.231 60.1023ZM171.339 55.0448C172.516 55.0448 172.908 54.4959 172.516 53.3982C172.202 52.3004 171.261 51.1634 169.693 49.9873C168.125 48.8111 165.851 48.223 162.871 48.223C159.421 48.223 156.833 48.9679 155.108 50.4577C153.462 51.9476 152.638 53.4766 152.638 55.0448H171.339Z" fill="#171717"/>
<path d="M77.3211 90.6828C73.871 90.6828 71.1266 89.6634 69.0879 87.6247C67.1276 85.5076 66.1475 82.9201 66.1475 79.862V11.7617C66.1475 8.46843 67.1276 5.68483 69.0879 3.4109C71.1266 1.13697 73.9886 0 77.6739 0C81.2809 0 83.9861 1.13697 85.7895 3.4109C87.6714 5.68483 88.6123 8.50764 88.6123 11.8793V47.0468H90.7294C90.7294 42.5774 91.5136 39.0489 93.0818 36.4613C94.7284 33.8737 96.8063 32.0311 99.3155 30.9333C101.903 29.7571 104.53 29.169 107.196 29.169C111.901 29.169 115.468 30.3452 117.899 32.6976C120.408 34.9715 122.094 38.0295 122.957 41.8717C123.897 45.7138 124.368 49.9089 124.368 54.4567V79.862C124.368 83.0769 123.309 85.7037 121.192 87.7424C119.154 89.7026 116.409 90.6828 112.959 90.6828C109.431 90.6828 106.647 89.7026 104.608 87.7424C102.57 85.7037 101.55 83.0769 101.55 79.862V59.0438C101.55 56.221 101.001 54.0255 99.9036 52.4572C98.8058 50.889 97.1984 50.1049 95.0813 50.1049C92.9642 50.1049 91.3567 50.9674 90.259 52.6925C89.1612 54.4175 88.6123 56.613 88.6123 59.279V79.862C88.6123 82.9201 87.593 85.5076 85.5543 87.6247C83.594 89.6634 80.8496 90.6828 77.3211 90.6828Z" fill="#171717"/>
<path d="M35.6421 91.0357C31.4863 91.0357 27.7226 90.0947 24.3509 88.2128C21.0576 86.331 18.47 83.665 16.5882 80.2149C14.7063 76.6864 13.7653 72.5698 13.7653 67.8651V47.1645L9.41351 47.7526C7.06117 48.0662 4.98327 47.2429 3.1798 45.2826C1.37634 43.3223 0.474609 40.8523 0.474609 37.8727C0.474609 34.8931 1.37634 32.4623 3.1798 30.5805C4.98327 28.6202 7.06117 27.7969 9.41351 28.1105L13.7653 28.6986L13.6477 20.7006C13.5693 17.5642 14.471 15.0942 16.3529 13.2907C18.2348 11.4089 20.9792 10.4679 24.5861 10.4679C28.193 10.4679 30.9766 11.4089 32.9369 13.2907C34.8972 15.0942 35.7989 17.5642 35.6421 20.7006L35.4069 28.6986L41.6406 27.8753C45.8748 27.248 49.0897 28.0321 51.2852 30.2276C53.4807 32.3447 54.5785 34.8931 54.5785 37.8727C54.5785 40.8523 53.4807 43.4399 51.2852 45.6354C49.1681 47.7525 46.0708 48.5367 41.9935 47.9878L35.4069 47.1645V64.6894C35.4069 65.7088 35.7597 66.6497 36.4654 67.5122C37.1711 68.2963 38.0337 68.5316 39.053 68.2179C40.2292 67.9043 41.4446 67.2378 42.6992 66.2184C44.0321 65.1991 45.718 64.6894 47.7567 64.6894C50.8147 64.6894 53.1671 65.7872 54.8137 67.9827C56.4604 70.1782 57.2837 72.8834 57.2837 76.0983C57.2837 78.6074 56.3819 81.0382 54.5785 83.3905C52.8534 85.6645 50.3835 87.5071 47.1686 88.9185C43.9537 90.3299 40.1116 91.0357 35.6421 91.0357Z" fill="#171717"/>
</svg>
