<svg width="194" height="91" viewBox="0 0 194 91" fill="none" xmlns="http://www.w3.org/2000/svg">
<path d="M182.427 90.6828C178.585 90.6828 175.683 89.6634 173.723 87.6247C171.841 85.586 170.9 83.0377 170.9 79.9796V11.7617C170.9 8.39002 171.841 5.60642 173.723 3.4109C175.683 1.13697 178.585 0 182.427 0C185.877 0 188.543 1.13697 190.425 3.4109C192.307 5.60642 193.248 8.31161 193.248 11.5265V79.9796C193.248 83.0377 192.307 85.586 190.425 87.6247C188.543 89.6634 185.877 90.6828 182.427 90.6828Z" fill="black"/>
<path d="M151.699 90.6828C147.857 90.6828 144.955 89.6634 142.995 87.6247C141.113 85.586 140.172 83.0377 140.172 79.9796V11.7617C140.172 8.39002 141.113 5.60642 142.995 3.4109C144.955 1.13697 147.857 0 151.699 0C155.149 0 157.815 1.13697 159.697 3.4109C161.579 5.60642 162.52 8.31161 162.52 11.5265V79.9796C162.52 83.0377 161.579 85.586 159.697 87.6247C157.815 89.6634 155.149 90.6828 151.699 90.6828Z" fill="black"/>
<path d="M53.8717 90.6828C49.9511 90.6828 46.8539 89.5066 44.5799 87.1543C42.306 84.7235 41.0906 81.5871 40.9338 77.7449C40.6201 71.0799 38.9343 66.3752 35.8763 63.6308C32.8966 60.808 28.8976 59.3966 23.8793 59.3966H21.527V78.2154C21.527 82.2928 20.4292 85.39 18.2337 87.5071C16.0382 89.6242 13.1369 90.6828 9.53002 90.6828C5.68786 90.6828 2.66903 89.6242 0.473507 87.5071C-1.72201 85.39 -2.81977 82.2928 -2.81977 78.2154V61.6314C-2.81977 53.3197 -1.6044 47.0076 0.826357 42.695C3.33552 38.3824 6.51118 35.2851 10.3533 33.4033L9.76526 31.1685H7.88338C4.27646 31.1685 1.41444 30.0316 -0.702665 27.7576C-2.74136 25.4053 -3.83912 22.2296 -3.99594 18.2306C-4.07436 14.3101 -3.0158 11.1344 -0.820282 8.70366C1.37524 6.2729 4.27646 5.05753 7.88338 5.05753H37.8757C46.2658 5.05753 53.0484 7.09622 58.2235 11.1736C63.3987 15.251 65.9862 21.7592 65.9862 30.6981C65.9862 35.3243 65.2021 39.2057 63.6339 42.3421C62.0657 45.4002 60.0662 47.7525 57.6354 49.3992C55.2047 51.0458 52.6563 52.026 49.9903 52.3396V53.8686C54.8518 55.0448 58.8508 57.6324 61.9872 61.6314C65.2021 65.6303 66.8096 71.0015 66.8096 77.7449C66.8096 82.0575 65.6334 85.3116 63.281 87.5071C61.0071 89.6242 57.8707 90.6828 53.8717 90.6828ZM20.9389 41.4012C20.9389 43.1263 21.2525 44.2632 21.8798 44.8121C22.5071 45.361 23.6833 45.6354 25.4083 45.6354H36.4643C39.7576 45.6354 42.1492 44.8905 43.639 43.4007C45.1288 41.9109 45.8737 39.833 45.8737 37.167C45.8737 34.4226 45.1288 32.3055 43.639 30.8157C42.1492 29.3259 39.7576 28.581 36.4643 28.581H25.4083C23.6833 28.581 22.5071 28.8162 21.8798 29.2867C21.2525 29.7571 20.9389 30.8941 20.9389 32.6975V41.4012Z" fill="black"/>
</svg>
