<svg width="432" height="116" viewBox="0 0 432 116" fill="none" xmlns="http://www.w3.org/2000/svg">
<path d="M403.89 92.829C398.479 92.829 393.461 92.3193 388.835 91.2999C384.287 90.2022 380.641 88.5163 377.896 86.2424C375.152 83.8901 373.78 80.7928 373.78 76.9507C373.78 73.579 374.799 70.7954 376.838 68.5998C378.877 66.4043 381.582 65.3066 384.953 65.3066C387.071 65.3066 389.188 65.6594 391.305 66.3651C393.5 66.9924 395.813 67.6197 398.244 68.247C400.675 68.8743 403.302 69.1879 406.124 69.1879C408.634 69.1879 410.319 69.0703 411.182 68.8351C412.045 68.5214 412.476 67.9725 412.476 67.1884C412.476 66.2475 411.927 65.6202 410.829 65.3066C409.81 64.9929 408.046 64.6009 405.536 64.1304L397.068 62.4837C393.539 61.778 390.089 60.8763 386.718 59.7786C383.424 58.6024 380.68 56.8773 378.484 54.6034C376.367 52.3295 375.309 49.2322 375.309 45.3116C375.309 39.9797 377.661 35.8239 382.366 32.8442C387.149 29.8646 394.049 28.3748 403.066 28.3748C408.242 28.3748 412.868 28.8845 416.945 29.9038C421.101 30.9232 424.394 32.4522 426.825 34.4909C429.256 36.4512 430.471 38.9211 430.471 41.9008C430.55 45.1156 429.687 47.7032 427.884 49.6635C426.08 51.6238 423.806 52.6039 421.062 52.6039C419.102 52.6039 417.102 52.3687 415.063 51.8982C413.103 51.3493 410.947 50.8005 408.594 50.2516C406.321 49.6243 403.694 49.2714 400.714 49.193C398.597 49.0362 396.872 49.1538 395.539 49.5459C394.206 49.9379 393.539 50.5652 393.539 51.4277C393.539 52.3687 394.324 53.0352 395.892 53.4272C397.46 53.7409 399.812 54.1721 402.949 54.721L411.3 56.25C416.396 57.1126 420.435 58.2103 423.414 59.5433C426.472 60.7979 428.668 62.5622 430.001 64.8361C431.334 67.11 432 70.2465 432 74.2455C432 78.4013 430.785 81.8906 428.354 84.7134C426.002 87.4578 422.708 89.4965 418.474 90.8295C414.24 92.1625 409.379 92.829 403.89 92.829Z" fill="#171717"/>
<path d="M308.973 60.7195C308.973 54.525 310.188 49.0754 312.619 44.3707C315.128 39.666 318.656 35.9807 323.204 33.3147C327.831 30.6487 333.319 29.3157 339.671 29.3157C344.611 29.3157 349.041 30.2174 352.961 32.0209C356.96 33.8244 360.097 36.2551 362.371 39.3132C364.645 42.2928 365.782 45.5861 365.782 49.193C365.782 52.9567 364.684 55.6227 362.488 57.191C360.293 58.7592 357.039 59.5433 352.726 59.5433H328.027C328.027 61.582 328.811 63.2678 330.379 64.6008C332.026 65.9338 334.77 66.6003 338.612 66.6003C340.572 66.6003 342.376 66.4043 344.023 66.0122C345.748 65.6202 347.473 65.2673 349.198 64.9537C351.001 64.5616 353.001 64.3656 355.196 64.3656C358.333 64.3656 360.92 65.5026 362.959 67.7765C364.998 69.972 366.017 73.0301 366.017 76.9506C366.017 81.5769 363.625 85.1838 358.842 87.7714C354.138 90.359 347.943 91.6528 340.259 91.6528C334.848 91.6528 329.752 90.5942 324.969 88.4771C320.264 86.36 316.422 83.0275 313.442 78.4797C310.462 73.8534 308.973 67.9333 308.973 60.7195ZM347.081 55.6619C348.257 55.6619 348.649 55.1131 348.257 54.0153C347.943 52.9175 347.002 51.7806 345.434 50.6044C343.866 49.4282 341.592 48.8401 338.612 48.8401C335.162 48.8401 332.574 49.5851 330.849 51.0749C329.203 52.5647 328.379 54.0937 328.379 55.6619H347.081Z" fill="#171717"/>
<path d="M223.07 91.2999C219.542 91.2999 216.719 90.2805 214.602 88.2418C212.563 86.1247 211.544 83.5371 211.544 80.4791V41.5478C211.544 38.2546 212.524 35.471 214.484 33.197C216.523 30.9231 219.385 29.7861 223.07 29.7861C226.677 29.7861 229.383 30.9231 231.186 33.197C232.989 35.471 233.891 38.333 233.891 41.7831V47.6639H236.008C236.008 40.999 237.42 36.3727 240.243 33.7851C243.065 31.1191 246.555 29.7861 250.71 29.7861C256.042 29.7861 259.963 31.4328 262.472 34.726C264.981 38.0193 266.236 42.332 266.236 47.6639H268.353C268.353 43.1945 269.098 39.666 270.588 37.0784C272.078 34.4908 273.959 32.6481 276.233 31.5504C278.586 30.3742 281.016 29.7861 283.526 29.7861C288.622 29.7861 292.347 31.0015 294.699 33.4323C297.13 35.863 298.698 39.1171 299.404 43.1945C300.11 47.2719 300.463 51.8589 300.463 56.9557V80.4791C300.463 83.5371 299.404 86.1247 297.287 88.2418C295.248 90.2805 292.504 91.2999 289.054 91.2999C285.604 91.2999 282.82 90.2805 280.703 88.2418C278.586 86.1247 277.527 83.5371 277.527 80.4791V59.6609C277.527 56.8381 277.174 54.6425 276.469 53.0743C275.763 51.5061 274.351 50.722 272.234 50.722C269.96 50.722 268.471 51.5845 267.765 53.3095C267.138 55.0346 266.824 57.2301 266.824 59.8961V80.4791C266.824 83.5371 265.844 86.1247 263.884 88.2418C261.923 90.2805 259.218 91.2999 255.768 91.2999C252.239 91.2999 249.417 90.2805 247.3 88.2418C245.261 86.1247 244.242 83.5371 244.242 80.4791V59.6609C244.242 56.8381 243.889 54.6425 243.183 53.0743C242.477 51.5061 241.105 50.722 239.066 50.722C236.792 50.722 235.342 51.5845 234.715 53.3095C234.166 55.0346 233.891 57.2301 233.891 59.8961V80.4791C233.891 83.5371 232.95 86.1247 231.068 88.2418C229.187 90.2805 226.521 91.2999 223.07 91.2999Z" fill="#171717"/>
<path d="M166.809 115.529C161.555 115.529 157.242 114.667 153.871 112.941C150.577 111.216 147.99 108.942 146.108 106.12C144.54 103.689 143.638 101.141 143.403 98.4746C143.246 95.8086 143.756 93.3386 144.932 91.0647C146.108 88.7124 147.872 86.9089 150.225 85.6543C152.655 84.3213 155.086 83.8116 157.517 84.1253C159.948 84.3605 162.182 85.2623 164.221 86.8305C166.26 88.3203 167.828 90.2806 168.926 92.7113C170.102 95.2989 171.278 97.1808 172.454 98.357C173.709 99.6115 175.316 99.886 177.276 99.1803C179.158 98.553 179.825 96.8279 179.276 94.0051C178.805 91.1823 177.786 87.8498 176.218 84.0077H171.866C168.494 84.0077 165.123 82.7923 161.751 80.3615C158.379 77.9308 155.557 74.0886 153.283 68.8351L143.638 46.4878C142.148 42.9593 141.991 39.7052 143.168 36.7256C144.422 33.746 146.657 31.5896 149.872 30.2567C152.851 28.9237 155.792 28.8453 158.693 30.0214C161.594 31.1976 163.868 33.7068 165.515 37.5489L174.454 58.3671C175.943 61.7388 177.551 64.1696 179.276 65.6594C181.079 67.1492 182.961 67.3845 184.922 66.3651C186.647 65.4242 187.588 64.1304 187.744 62.4837C187.901 60.7587 187.078 58.6808 185.274 56.25C184.49 55.1523 183.549 53.9369 182.452 52.6039C181.432 51.2709 180.491 49.7419 179.629 48.0168C178.845 46.2134 178.453 44.2139 178.453 42.0184C178.453 38.333 179.707 35.3142 182.216 32.9619C184.726 30.5311 188.019 29.3157 192.096 29.3157C195.782 29.3157 198.722 30.4919 200.918 32.8442C203.191 35.1966 204.328 38.2546 204.328 42.0184C204.328 44.6844 204.015 47.6248 203.387 50.8396C202.76 54.0545 202.054 57.0342 201.27 59.7786L192.802 90.7118C191.547 95.3381 189.901 99.5331 187.862 103.297C185.823 107.061 183.118 110.04 179.746 112.236C176.375 114.431 172.062 115.529 166.809 115.529Z" fill="#171717"/>
<path d="M89.0931 91.2999C85.6429 91.2999 82.8986 90.2806 80.8599 88.2419C78.8996 86.1248 77.9194 83.5372 77.9194 80.4791V12.3788C77.9194 9.08556 78.8996 6.30195 80.8599 4.02802C82.8986 1.75409 85.7606 0.617126 89.4459 0.617126C93.0528 0.617126 95.758 1.75409 97.5615 4.02802C99.4434 6.30195 100.384 9.12476 100.384 12.4965V47.664H102.501C102.501 43.1945 103.286 39.666 104.854 37.0784C106.5 34.4908 108.578 32.6482 111.087 31.5504C113.675 30.3743 116.302 29.7862 118.968 29.7862C123.672 29.7862 127.24 30.9623 129.671 33.3147C132.18 35.5886 133.866 38.6467 134.728 42.4888C135.669 46.331 136.14 50.526 136.14 55.0738V80.4791C136.14 83.694 135.081 86.3208 132.964 88.3595C130.926 90.3198 128.181 91.2999 124.731 91.2999C121.203 91.2999 118.419 90.3198 116.38 88.3595C114.342 86.3208 113.322 83.694 113.322 80.4791V59.6609C113.322 56.8381 112.773 54.6426 111.676 53.0744C110.578 51.5061 108.97 50.722 106.853 50.722C104.736 50.722 103.129 51.5845 102.031 53.3096C100.933 55.0346 100.384 57.2302 100.384 59.8961V80.4791C100.384 83.5372 99.3649 86.1248 97.3263 88.2419C95.366 90.2806 92.6216 91.2999 89.0931 91.2999Z" fill="#171717"/>
<path d="M58.4186 91.2999C54.498 91.2999 51.4007 90.1237 49.1268 87.7714C46.8529 85.3406 45.6375 82.2042 45.4807 78.362C45.167 71.6971 43.4812 66.9924 40.4231 64.248C37.4435 61.4252 33.4445 60.0138 28.4262 60.0138H26.0738V78.8325C26.0738 82.9099 24.9761 86.0071 22.7806 88.1242C20.585 90.2414 17.6838 91.2999 14.0769 91.2999C10.2347 91.2999 7.2159 90.2414 5.02038 88.1242C2.82486 86.0071 1.7271 82.9099 1.7271 78.8325V62.2485C1.7271 53.9369 2.94248 47.6248 5.37323 43.3121C7.8824 38.9995 11.0581 35.9023 14.9002 34.0204L14.3121 31.7856H12.4303C8.82333 31.7856 5.96132 30.6487 3.84421 28.3748C1.80551 26.0224 0.707754 22.8468 0.550931 18.8478C0.472519 14.9272 1.53107 11.7515 3.72659 9.32078C5.92211 6.89003 8.82333 5.67465 12.4303 5.67465H42.4226C50.8126 5.67465 57.5952 7.71335 62.7704 11.7907C67.9455 15.8681 70.5331 22.3763 70.5331 31.3152C70.5331 35.9415 69.749 39.8228 68.1808 42.9593C66.6125 46.0173 64.613 48.3697 62.1823 50.0163C59.7515 51.6629 57.2032 52.6431 54.5372 52.9567V54.4857C59.3987 55.6619 63.3977 58.2495 66.5341 62.2485C69.749 66.2475 71.3564 71.6186 71.3564 78.362C71.3564 82.6747 70.1803 85.9287 67.8279 88.1242C65.554 90.2414 62.4175 91.2999 58.4186 91.2999ZM25.4858 42.0183C25.4858 43.7434 25.7994 44.8804 26.4267 45.4292C27.054 45.9781 28.2302 46.2526 29.9552 46.2526H41.0112C44.3045 46.2526 46.696 45.5076 48.1859 44.0178C49.6757 42.528 50.4206 40.4501 50.4206 37.7841C50.4206 35.0397 49.6757 32.9226 48.1859 31.4328C46.696 29.943 44.3045 29.1981 41.0112 29.1981H29.9552C28.2302 29.1981 27.054 29.4333 26.4267 29.9038C25.7994 30.3742 25.4858 31.5112 25.4858 33.3147V42.0183Z" fill="#171717"/>
</svg>
